<?xml version="1.0" encoding="utf-8"?>
<svg id="svg2" viewBox="0 0 500 670" xmlns="http://www.w3.org/2000/svg">
  <desc>Source: openclipart.org/detail/209545</desc>
  <path fill="#FFFFFF" opacity="1.000000" stroke="none" d="M 230.295 372.436 C 222.973 365.129 215.912 358.066 208.858 350.997 C 201.409 343.533 197.213 334.954 197.877 323.974 C 198.55 312.853 212.717 301.98 223.106 305.276 C 228.305 306.926 233.279 309.283 237.983 311.17 C 242.38 309.455 247.369 307.641 252.252 305.576 C 263.014 301.024 278.734 314.245 278.273 325.757 C 277.872 335.779 274.315 343.642 267.63 350.457 C 258.131 360.142 248.451 369.648 238.797 379.281 C 235.6 376.719 233.079 374.699 230.295 372.436 M 259.024 347.096 C 261.423 344.029 264.07 341.122 266.171 337.863 C 270.625 330.952 270.172 322.716 266.167 318.34 C 257.611 308.99 246.899 314.826 242.099 322.573 C 235.669 322.693 235.758 322.586 231.063 318.7 C 226.614 315.016 221.973 312.27 215.615 314.415 C 205.962 317.671 204.021 329.203 209.724 337.664 C 217.377 349.019 227.426 358.268 238.481 367.279 C 245.321 360.572 251.928 354.094 259.024 347.096 Z"/>
  <path opacity="1.000000" stroke="none" d="M 258.779 347.356 C 251.928 354.094 245.321 360.572 238.481 367.279 C 227.426 358.268 217.377 349.019 209.724 337.664 C 204.021 329.203 205.962 317.671 215.615 314.415 C 221.973 312.27 226.614 315.016 231.063 318.7 C 235.758 322.586 235.669 322.693 242.099 322.573 C 246.899 314.826 257.611 308.99 266.167 318.34 C 270.172 322.716 270.625 330.952 266.171 337.863 C 264.07 341.122 261.423 344.029 258.779 347.356 Z" style="fill: rgb(255, 255, 255);"/>
</svg>