<svg version="1.1" id="Layer_1" xmlns="http://www.w3.org/2000/svg" xmlns:xlink="http://www.w3.org/1999/xlink" x="0px" y="0px"
	 width="100%" viewBox="0 0 96 96" enable-background="new 0 0 96 96" xml:space="preserve">
<path fill="#000000" opacity="1.000000" stroke="none" 
	d="
M64.000000,97.000000 
	C42.666672,97.000000 21.833342,97.000000 1.000008,97.000000 
	C1.000006,65.000008 1.000006,33.000019 1.000003,1.000021 
	C32.999985,1.000014 64.999969,1.000014 96.999969,1.000007 
	C96.999977,32.999981 96.999977,64.999962 96.999985,96.999969 
	C86.166664,97.000000 75.333336,97.000000 64.000000,97.000000 
M41.562572,79.038612 
	C44.083206,81.058670 46.603840,83.078728 49.801388,85.641266 
	C59.454823,76.008110 69.134819,66.501488 78.633804,56.817307 
	C85.318962,50.001808 88.876007,42.138577 89.277229,32.116722 
	C89.738098,20.605217 74.018166,7.384204 63.255985,11.935470 
	C58.372803,14.000536 53.383472,15.814597 48.986740,17.530094 
	C44.283192,15.642673 39.308628,13.286060 34.109741,11.636361 
	C23.720646,8.339714 9.553757,19.212513 8.881010,30.333981 
	C8.216829,41.313850 12.412427,49.892635 19.861521,57.356983 
	C26.915932,64.425842 33.976456,71.488609 41.562572,79.038612 
z"/>
<path fill="#FFFFFF" opacity="1.000000" stroke="none" 
	d="
M41.298431,78.796333 
	C33.976456,71.488609 26.915932,64.425842 19.861521,57.356983 
	C12.412427,49.892635 8.216829,41.313850 8.881010,30.333981 
	C9.553757,19.212513 23.720646,8.339714 34.109741,11.636361 
	C39.308628,13.286060 44.283192,15.642673 48.986740,17.530094 
	C53.383472,15.814597 58.372803,14.000536 63.255985,11.935470 
	C74.018166,7.384204 89.738098,20.605217 89.277229,32.116722 
	C88.876007,42.138577 85.318962,50.001808 78.633804,56.817307 
	C69.134819,66.501488 59.454823,76.008110 49.801388,85.641266 
	C46.603840,83.078728 44.083206,81.058670 41.298431,78.796333 
M70.027519,53.455441 
	C72.427040,50.388924 75.074081,47.481960 77.174850,44.222870 
	C81.629410,37.312172 81.175491,29.075417 77.171295,24.699781 
	C68.615280,15.350093 57.903107,21.185913 53.103321,28.932896 
	C46.673103,29.053127 46.761475,28.946388 42.066856,25.059605 
	C37.617496,21.375879 32.976624,18.630091 26.619202,20.774725 
	C16.966152,24.031116 15.024700,35.562561 20.727579,44.023899 
	C28.380730,55.378841 38.429817,64.628273 49.485146,73.639145 
	C56.325413,66.931747 62.931694,60.453793 70.027519,53.455441 
z"/>
<path fill="#000000" opacity="1.000000" stroke="none" 
	d="
M69.782745,53.715637 
	C62.931694,60.453793 56.325413,66.931747 49.485146,73.639145 
	C38.429817,64.628273 28.380730,55.378841 20.727579,44.023899 
	C15.024700,35.562561 16.966152,24.031116 26.619202,20.774725 
	C32.976624,18.630091 37.617496,21.375879 42.066856,25.059605 
	C46.761475,28.946388 46.673103,29.053127 53.103321,28.932896 
	C57.903107,21.185913 68.615280,15.350093 77.171295,24.699781 
	C81.175491,29.075417 81.629410,37.312172 77.174850,44.222870 
	C75.074081,47.481960 72.427040,50.388924 69.782745,53.715637 
z"/>
</svg>