<!DOCTYPE svg PUBLIC "-//W3C//DTD SVG 1.1//EN" "http://www.w3.org/Graphics/SVG/1.1/DTD/svg11.dtd">
<!-- Uploaded to: SVG Repo, www.svgrepo.com, Transformed by: SVG Repo Mixer Tools -->
<svg width="800px" height="800px" viewBox="0 0 64 64" data-name="Layer 1" id="Layer_1" xmlns="http://www.w3.org/2000/svg" fill="#000000">
<g id="SVGRepo_bgCarrier" stroke-width="0"/>
<g id="SVGRepo_tracerCarrier" stroke-linecap="round" stroke-linejoin="round"/>
<g id="SVGRepo_iconCarrier">
<defs>
<style>.cls-1{fill:#ffffff;}</style>
</defs>
<title/>
<path class="cls-1" d="M54.51,41.5a6.12,6.12,0,0,1-1.79-.27L32,34.78,11.28,41.23A6,6,0,0,1,7.72,29.77l22.5-7a6,6,0,0,1,3.56,0L44.3,26a2,2,0,1,1-1.19,3.82L32.59,26.59a2,2,0,0,0-1.18,0l-22.5,7a2,2,0,0,0,1.18,3.82l21.32-6.63a2,2,0,0,1,1.18,0l21.32,6.63a2,2,0,0,0,1.18-3.82L53.3,33a2,2,0,0,1,1.19-3.82l1.79.56a6,6,0,0,1,1,11A5.93,5.93,0,0,1,54.51,41.5Z"/>
</g>
</svg>